<?xml version="1.0" encoding="UTF-8" standalone="no"?>
<!-- Created with Inkscape (http://www.inkscape.org/) -->

<svg
   width="256.00003"
   height="95.999992"
   viewBox="0 0 67.733341 25.399998"
   version="1.1"
   id="svg1"
   xmlns="http://www.w3.org/2000/svg"
   xmlns:svg="http://www.w3.org/2000/svg">
  <defs
     id="defs1" />
  <g
     id="layer1"
     transform="translate(-67.215486,-159.19322)">
    <rect
       style="fill:#b07b1d;fill-opacity:1;fill-rule:evenodd;stroke:#785414;stroke-width:0.6;stroke-linecap:round;stroke-miterlimit:36.2;stroke-dasharray:none;stroke-opacity:1"
       id="rect28"
       width="67.133331"
       height="24.799999"
       x="67.694626"
       y="159.67235"
       ry="12.4" />
    <path
       style="fill:#785414;fill-opacity:1;fill-rule:evenodd;stroke:#785414;stroke-width:0.600001;stroke-linecap:round;stroke-miterlimit:36.2;stroke-dasharray:none;stroke-opacity:1"
       d="m 80.524443,164.44982 c 0,0 -0.44332,-1.83664 -0.37999,-2.59663 0.0633,-0.75999 0.31666,-1.01332 0.31666,-1.01332"
       id="path33" />
    <path
       id="path30"
       style="fill:#ff0000;fill-rule:evenodd;stroke:#bd0000;stroke-width:0.6;stroke-linecap:round;stroke-miterlimit:36.2"
       d="m 70.610333,171.89549 c 0,-3.53042 1.09785,-5.12173 2.87282,-6.88332 1.77465,-1.76192 4.22707,-0.73449 6.93559,-0.7345 2.70852,1e-5 5.16061,-1.0271 6.93559,0.7345 1.77464,1.76192 2.87283,4.19521 2.87282,6.88332 -1e-5,2.68809 -1.09785,5.12171 -2.87283,6.88331 -1.77497,1.76159 -4.22707,1.79283 -6.9356,1.79282 -2.70851,-1e-5 -5.16061,-0.0312 -6.93559,-1.79284 -1.60856,-1.93711 -2.8728,-3.35287 -2.8728,-6.88329 z" />
    <path
       style="fill:#2ca41b;fill-opacity:1;fill-rule:evenodd;stroke:#1d7814;stroke-width:0.600001;stroke-linecap:round;stroke-miterlimit:36.2;stroke-dasharray:none;stroke-opacity:1"
       d="m 80.334453,162.35985 1.39331,-0.44333 c 0,0 0.8116,0.53323 1.20332,0.37999 0.47551,-0.18602 1.64445,-1.63226 1.64445,-1.63226 0,0 -1.8412,-0.20478 -2.27777,-0.0144 -0.42483,0.18528 -0.69666,1.20332 -0.69666,1.20332"
       id="path34" />
    <path
       style="fill:#b07b1d;fill-opacity:0;fill-rule:evenodd;stroke:#785414;stroke-width:0.600001;stroke-linecap:round;stroke-miterlimit:36.2;stroke-dasharray:none;stroke-opacity:1"
       d="m 126.82054,165.65314 c 0,0 -5.4466,-2.78663 -9.49988,-1.64665 -4.05329,1.13999 -12.28652,-1.77331 -14.18649,-1.26665 -1.89998,0.50666 -7.473247,4.93994 -8.486567,4.43328 -1.01332,-0.50666 -6.58658,-3.92662 -6.58658,-3.92662"
       id="path35" />
    <path
       style="fill:#b07b1d;fill-opacity:0;fill-rule:evenodd;stroke:#785414;stroke-width:0.600001;stroke-linecap:round;stroke-miterlimit:36.2;stroke-dasharray:none;stroke-opacity:1"
       d="m 97.814233,162.61318 c 0,0 0.12666,2.78663 -2.27997,2.02664 -2.40664,-0.75999 2.27997,-2.02664 2.27997,-2.02664 z"
       id="path36" />
    <path
       style="fill:#b07b1d;fill-opacity:0;fill-rule:evenodd;stroke:#785414;stroke-width:0.600001;stroke-linecap:round;stroke-miterlimit:36.2;stroke-dasharray:none;stroke-opacity:1"
       d="m 126.18721,168.94643 c -3.41996,6.20659 -9.87988,13.93316 -13.29983,11.52652 -3.41996,-2.40663 -7.85324,-18.61976 -10.38654,-10.25987 -2.533307,8.3599 -7.346577,11.2732 -7.473237,7.34658 -0.12667,-3.92662 -3.54663,-4.93994 -3.54663,-4.93994"
       id="path37" />
    <path
       style="fill:#b07b1d;fill-opacity:0;fill-rule:evenodd;stroke:#785414;stroke-width:0.600001;stroke-linecap:round;stroke-miterlimit:36.2;stroke-dasharray:none;stroke-opacity:1"
       d="m 99.967533,170.59308 c 0,0 -1.51998,6.83991 -2.65996,5.31993 -1.13999,-1.51998 -3.29329,-4.68661 -1.39332,-5.19327 1.89998,-0.50666 4.05328,-0.12666 4.05328,-0.12666 z"
       id="path38" />
    <path
       style="fill:#b07b1d;fill-opacity:0;fill-rule:evenodd;stroke:#785414;stroke-width:0.600001;stroke-linecap:round;stroke-miterlimit:36.2;stroke-dasharray:none;stroke-opacity:1"
       d="m 121.75393,170.21308 c 0,0 -3.67328,7.9799 -6.33325,8.10657 -2.65997,0.12666 -6.96658,-7.34658 -5.69993,-8.10657 1.26665,-0.75999 12.03318,0 12.03318,0 z"
       id="path39" />
    <path
       style="fill:#b07b1d;fill-opacity:0;fill-rule:evenodd;stroke:#785414;stroke-width:0.600001;stroke-linecap:round;stroke-miterlimit:36.2;stroke-dasharray:none;stroke-opacity:1"
       d="m 122.13393,167.04646 c 0,0 -5.69993,-1.89998 -6.96658,-1.01333 -1.26665,0.88666 -8.61323,2.02665 -8.73989,1.01333 -0.12667,-1.01333 -0.12667,-1.01333 -0.12667,-1.01333 l 0.75999,-0.88665"
       id="path40" />
    <path
       style="fill:#b07b1d;fill-opacity:0;fill-rule:evenodd;stroke:#785414;stroke-width:0.600001;stroke-linecap:round;stroke-miterlimit:36.2;stroke-dasharray:none;stroke-opacity:1"
       d="m 106.68079,176.92633 c 0,0 -1.01332,2.9133 -2.15331,1.77331 -1.13999,-1.13998 -2.78663,-3.03996 -2.78663,-3.03996"
       id="path41" />
    <path
       style="fill:#b07b1d;fill-opacity:0;fill-rule:evenodd;stroke:#785414;stroke-width:0.600001;stroke-linecap:round;stroke-miterlimit:36.2;stroke-dasharray:none;stroke-opacity:1"
       d="m 129.98716,173.37971 c 0,0 -6.20659,8.73989 -7.47324,8.23323 -1.26665,-0.50666 -6.45992,-0.25333 -6.45992,0.63333 0,0.88665 -2.40663,1.64664 -2.91329,0.88665 -0.50666,-0.75999 -4.81328,-3.16663 -6.33326,-2.15331 -1.51998,1.01333 -9.246547,2.9133 -11.146527,1.77332 -1.89997,-1.13999 -6.20659,-3.41996 -7.09324,-2.40664 -0.88666,1.01332 -6.58659,2.9133 -8.61323,2.40664 -2.02664,-0.50666 -6.33325,-1.77332 -7.09324,-2.27998 -0.75999,-0.50666 -3.41996,-4.93993 -3.54663,-7.21991 -0.12666,-2.27997 1.89998,-8.23323 1.89998,-8.23323"
       id="path42" />
    <path
       style="fill:#b07b1d;fill-opacity:0;fill-rule:evenodd;stroke:#785414;stroke-width:0.600001;stroke-linecap:round;stroke-miterlimit:36.2;stroke-dasharray:none;stroke-opacity:1"
       d="m 90.720983,182.24627 -1.51998,0.12666"
       id="path43" />
    <path
       style="fill:#b07b1d;fill-opacity:0;fill-rule:evenodd;stroke:#785414;stroke-width:0.600001;stroke-linecap:round;stroke-miterlimit:36.2;stroke-dasharray:none;stroke-opacity:1"
       d="m 109.40595,182.95379 c 0,0 -3.03996,0.38 -3.54662,0 -0.50666,-0.37999 3.54662,0 3.54662,0 z"
       id="path44" />
  </g>
</svg>
